# xmcd
#
# Track frame offsets:
#	150
#	17132
#	29010
#	43762
#	57289
#	70162
#	81727
#	93147
#	107542
#	117247
#	131075
#	144502
#	161875
#	170430
#	182300
#	193595
#	206722
#	218937
#	236722
#	246720
#
# Disc length: 3431 seconds
#
# Revision: 0
# Processed by: cddbd v1.5.2PL0 Copyright (c) Steve Scherf et al.
# Submitted via: EasyCDDAExtractor 10.5.1.1
#
DISCID=2e0d6514
DTITLE=Various Artist - Illan varjoon himmeään - Tanssiorkesterien parhaat CD
DTITLE=3
DYEAR=1900
DGENRE=Easy Listening
TTITLE0=Yölintu - Liian suuri city
TTITLE1=Finlanders - Teddykarhujen huviretki  ( Teddy Bears'  Picnic )
TTITLE2=Solistiyhtye Suomi - He soittavat humppaa  ( Kuuntelen Tomppaa )
TTITLE3=A. Aallon Rytmiorkesteri - Oi Venus  ( Venus )
TTITLE4=Sorsakoski,  Topi and Agents - Moody River
TTITLE5=Korsuorkesteri - Jimmy banjoaan hän soittaa
TTITLE6=Solistiyhtye Suomi - Taina
TTITLE7=Finlanders - Kaikki tytöt  ( Karakum )
TTITLE8=A. Aallon Rytmiorkesteri - Nahkarotsi
TTITLE9=Solistiyhtye Suomi - Mahtava peräsin ja pulleat purjeet
TTITLE10=Hoikka,  Lasse and Souvarit - Nuo tummat silmät  ( Mörka ögon )
TTITLE11=Yölintu - TV:n kokoinen haitari
TTITLE12=Solistiyhtye Suomi - Mambo kutsuen soi
TTITLE13=A. Aallon Rytmiorkesteri - Matkamiehen mandoliini
TTITLE14=Korsuorkesteri - Maastoudutaan
TTITLE15=Solistiyhtye Suomi - Sheila
TTITLE16=Yölintu - Naapurin sahtijenkka
TTITLE17=Korsuorkesteri - Daiga daiga doo  ( Diga Diga Doo )
TTITLE18=Solistiyhtye Suomi - Abu-Hassanin vaimot
TTITLE19=Finlanders - Gimme Dat Ding
EXTD=
EXTT0=
EXTT1=
EXTT2=
EXTT3=
EXTT4=
EXTT5=
EXTT6=
EXTT7=
EXTT8=
EXTT9=
EXTT10=
EXTT11=
EXTT12=
EXTT13=
EXTT14=
EXTT15=
EXTT16=
EXTT17=
EXTT18=
EXTT19=
PLAYORDER=
